<?xml version="1.0" encoding="UTF-8" standalone="no"?>
<svg width="1024" height="1024" viewBox="0 0 1024 1024" fill="none" xmlns="http://www.w3.org/2000/svg">
  <!-- Background -->
  <rect width="1024" height="1024" rx="220" fill="#E10800"/>
  
  <!-- Document/Post -->
  <rect x="256" y="192" width="512" height="640" rx="40" fill="white"/>
  
  <!-- Text lines -->
  <rect x="320" y="280" width="384" height="32" rx="16" fill="#E6E6E6"/>
  <rect x="320" y="344" width="384" height="32" rx="16" fill="#E6E6E6"/>
  <rect x="320" y="408" width="256" height="32" rx="16" fill="#E6E6E6"/>
  
  <!-- Comment bubbles -->
  <path d="M320 520 H704 A24 24 0 0 1 728 544 V608 A24 24 0 0 1 704 632 H320 A24 24 0 0 1 296 608 V544 A24 24 0 0 1 320 520 Z" fill="#F0F0F0"/>
  <path d="M320 664 H704 A24 24 0 0 1 728 688 V752 A24 24 0 0 1 704 776 H320 A24 24 0 0 1 296 752 V688 A24 24 0 0 1 320 664 Z" fill="#F0F0F0"/>
  
  <!-- Comment indicators -->
  <circle cx="352" cy="576" r="16" fill="#E10800"/>
  <circle cx="352" cy="720" r="16" fill="#E10800"/>
  
  <!-- Comment lines -->
  <rect x="384" y="560" width="304" height="16" rx="8" fill="#E6E6E6"/>
  <rect x="384" y="592" width="224" height="16" rx="8" fill="#E6E6E6"/>
  <rect x="384" y="704" width="304" height="16" rx="8" fill="#E6E6E6"/>
  <rect x="384" y="736" width="224" height="16" rx="8" fill="#E6E6E6"/>
</svg> 